<svg xmlns="http://www.w3.org/2000/svg" xmlns:xlink="http://www.w3.org/1999/xlink" id="Layer_1" data-name="Layer 1" viewBox="0 0 160.99 176.17" width="160.99" height="176.17"><metadata><rdf:RDF xmlns:rdf="http://www.w3.org/1999/02/22-rdf-syntax-ns#" xmlns:dc="http://purl.org/dc/elements/1.1/"><rdf:Description><dc:creator>RealFaviconGenerator</dc:creator><dc:source>https://realfavicongenerator.net</dc:source></rdf:Description></rdf:RDF></metadata><defs><style>.cls-1,.cls-2{fill-rule:evenodd;}.cls-1{fill:url(#linear-gradient);}.cls-2{fill:url(#linear-gradient-2);}</style><linearGradient id="linear-gradient" x1="9.19" y1="32.63" x2="100.01" y2="165.31" gradientUnits="userSpaceOnUse"><stop offset="0" stop-color="#0711db"></stop><stop offset="1" stop-color="#00c7f6"></stop></linearGradient><linearGradient id="linear-gradient-2" x1="54.61" y1="1.54" x2="145.43" y2="134.22" xlink:href="#linear-gradient"></linearGradient></defs><title>Artboard 1 copy 10</title><path class="cls-1" d="M112.9,64.5H112L64.6,111.9,17.21,159.29,0,176.17l8-4.61c15.86-9.1,32.56-12.27,50.86-12.27h54.73A47.39,47.39,0,0,0,161,111.73C160.91,85.51,139.12,64.5,112.9,64.5Zm-15.43,55a7.6,7.6,0,1,1,7.6-7.59A7.6,7.6,0,0,1,97.47,119.49Zm32.69,0a7.6,7.6,0,1,1,7.6-7.59A7.6,7.6,0,0,1,130.16,119.49Z"></path><path class="cls-2" d="M153,4.61c-15.86,9.1-32.56,12.27-50.86,12.27H47.39A47.39,47.39,0,0,0,0,64.44c.08,26.22,21.87,47.23,48.09,47.23H49l47.39-47.4,47.39-47.39L161,0Z"></path></svg>